# xmcd
#
# Track frame offsets:
#	150
#	17667
#	33334
#	47793
#	64855
#	84341
#	98331
#	113863
#	131643
#	150880
#
# Disc length: 2281 seconds
#
# Revision: 1
# Processed by: cddbd v1.5.2PL0 Copyright (c) Steve Scherf et al.
# Submitted via: audiograbber 1.83.01
#
DISCID=6d08e70a
DTITLE=Aaron Newman - The Ok Caravan
DYEAR=2014
DGENRE=
TTITLE0=1892
TTITLE1=The Battle Of Washita River
TTITLE2=Day Is Done
TTITLE3=Going In No Direction
TTITLE4=No Return
TTITLE5=Winter Blues
TTITLE6=Only In America
TTITLE7=Correlation
TTITLE8=I´m On The Moon, You´re On The Sun
TTITLE9=Winter Blues (Reprise)
EXTD=
EXTT0=
EXTT1=
EXTT2=
EXTT3=
EXTT4=
EXTT5=
EXTT6=
EXTT7=
EXTT8=
EXTT9=
PLAYORDER=
